<?xml version="1.0" encoding="UTF-8"?><svg id="uuid-48366e3c-419d-4e1e-86b6-97bd4a8dbfa2" xmlns="http://www.w3.org/2000/svg" viewBox="0 0 211.4 425.1"><defs><style>.uuid-13ac7d18-edfb-4d65-b004-4d6ab83f2e25{fill:#e6eaed;}.uuid-b5bca8ac-1616-4b99-8a64-f7390064b2dc{fill:#fff;}.uuid-7ae3b7e5-671a-451a-a759-d9313757239d{fill:#848687;}.uuid-a20419dd-dfa8-4d87-885b-5ac0f0af0f19{fill:#dcdfe2;}.uuid-a263b796-c529-4557-a302-294db184d9b9{fill:#a8abad;}</style></defs><g id="uuid-cda00903-1722-42f7-9b30-8f1d15054473"><g><polygon class="uuid-13ac7d18-edfb-4d65-b004-4d6ab83f2e25" points="55.2 265.4 55.2 276.4 98.8 385.5 126 385.5 163.1 265.4 145.7 265.4 121.9 288.9 109.2 295.2 103.5 297.1 55.2 265.4"/><path class="uuid-a20419dd-dfa8-4d87-885b-5ac0f0af0f19" d="M211.4,308l-73.8,84.1s-14.5-8.3-15.8-8.7l35.2-116.2,54.4,40.8Z"/><polygon class="uuid-b5bca8ac-1616-4b99-8a64-f7390064b2dc" points="54.4 267.2 98.8 382.9 74 392.1 0 309.8 54.4 267.2"/><path class="uuid-13ac7d18-edfb-4d65-b004-4d6ab83f2e25" d="M155.4,246.9s4.4-39.6-1.3-46-23.9-6.8-26.2-3.8-17.9,26.8-17.9,26.8l-11.9-1.1-15.4-26.2s-3.3-3.8-13.3-3.8-19.8,13.3-19.4,22.8,3.8,34,3.8,34l51.9,45.6,49.7-48.3Z"/><path class="uuid-b5bca8ac-1616-4b99-8a64-f7390064b2dc" d="M20.7,278.9v-126.1s21.7-5,46,21.4l16.1,27.2s-12.9-7.4-20.1-2.2-6.8,29.8-6.6,46.4c0,0-3.3,.4-6.6,3.4s-28.7,29.9-28.7,29.9Z"/><path class="uuid-a20419dd-dfa8-4d87-885b-5ac0f0af0f19" d="M190.7,280.2v-127.8s-21.7-3.3-46,23.1l-16.9,26.5s13.7-6.7,20.9-1.5,6.8,29.8,6.6,46.4c0,0,3.3,.4,6.6,3.4s28.7,29.9,28.7,29.9Z"/><path class="uuid-a263b796-c529-4557-a302-294db184d9b9" d="M112,226.2s41-72.2,79-72.9v-30.1s-38.4,11.1-50.8,38.1-22.9,44-28.2,64.9Z"/><path class="uuid-a263b796-c529-4557-a302-294db184d9b9" d="M98.1,225.7S58.7,154.5,19.2,153.3v-32.3s45.6,15.4,58,42.4c12.4,27,17.7,41.2,20.9,62.3Z"/><path class="uuid-7ae3b7e5-671a-451a-a759-d9313757239d" d="M189,0c-36.5,11.4-62.1,57.8-62.1,57.8l-42.4-.7C53.8,8.1,22.3,0,22.3,0L0,122.9S0,302.6,0,308c.1,5.4,7.6,7.5,10.7,7.4,3.1-.1,6.5-2.7,6.5-2.7l38.6-41s38.3,38.8,40.4,40.5c2.1,1.7,5.7,5.3,9.5,5.2,3.9-.1,8.3-4.4,8.3-4.4l40.8-41.5s30.2,31.3,32.4,34.2c2.2,2.8,7.5,9.8,14.4,9.8s9.8-7.4,9.8-7.4V121.1L189,0Zm1.8,279.4l-26.6-27.9s-4.4-4.6-8.5-5c-4.1-.4-10,5.5-11.8,7.4s-38.2,39-38.2,39l-37-38.1s-6.8-8.5-12.6-8.7c-5.7-.2-17.6,15-17.6,15-1.7,2-17.7,18.3-17.7,18.3V123.3s60.9,24.9,77.5,102.4l13.9,.5s25.6-84.7,78.7-102.9v156.1Z"/><path class="uuid-7ae3b7e5-671a-451a-a759-d9313757239d" d="M74,392.1s12.9-12.3,31.7-11.8,32,11.8,32,11.8c0,0-28.4,33-31.8,33s-31.8-33-31.8-33Z"/></g></g></svg>