<?xml version="1.0" encoding="UTF-8"?>
<svg id="Calque_2" data-name="Calque 2" xmlns="http://www.w3.org/2000/svg" viewBox="0 0 119.85 240.95">
  <defs>
    <style>
      .cls-1 {
        fill: #eac7ad;
      }

      .cls-2 {
        fill: #fdd8bd;
      }

      .cls-3 {
        fill: #fff;
      }

      .cls-4 {
        fill: #e8e7e7;
      }

      .cls-5 {
        fill: #009bdf;
      }

      .cls-6 {
        fill: #d3d3d3;
      }

      .cls-7 {
        fill: #e1bfa6;
      }

      .cls-8 {
        fill: #1d2552;
      }

      .cls-9 {
        fill: #2ac4f3;
      }
    </style>
  </defs>
  <g id="uuid-19a196e4-532c-47fc-adba-58d5c9fcb574">
    <g>
      <polygon class="cls-1" points="31.32 150.43 31.32 156.69 55.98 218.53 71.4 218.53 92.47 150.43 82.59 150.43 69.08 163.79 61.89 167.37 58.67 168.39 31.32 150.43"/>
      <path class="cls-7" d="m119.85,174.6l-41.81,47.66s-8.21-4.69-8.96-4.95l19.94-65.85,30.83,23.14Z"/>
      <polygon class="cls-2" points="30.86 151.46 55.98 217.03 41.95 222.26 0 175.61 30.86 151.46"/>
      <path class="cls-4" d="m88.11,139.98s2.5-22.46-.76-26.08c-3.26-3.62-13.54-3.86-14.86-2.17-1.32,1.69-10.13,15.21-10.13,15.21l-6.74-.6-8.75-14.85s-1.89-2.17-7.57-2.17-11.23,7.52-10.98,12.93c.24,5.41,2.17,19.29,2.17,19.29l29.43,25.83,28.18-27.39Z"/>
      <path class="cls-3" d="m11.72,158.08v-71.45s12.31-2.84,26.05,12.11l9.11,15.4s-7.31-4.18-11.4-1.22c-4.09,2.96-3.86,16.88-3.76,26.3,0,0-1.89.23-3.75,1.93-1.86,1.69-16.25,16.94-16.25,16.94Z"/>
      <path class="cls-6" d="m108.11,158.84v-72.43s-12.31-1.87-26.05,13.09l-9.57,15.01s7.77-3.79,11.86-.84c4.09,2.96,3.86,16.88,3.76,26.3,0,0,1.89.23,3.75,1.93,1.86,1.69,16.25,16.94,16.25,16.94Z"/>
      <path class="cls-9" d="m63.52,128.22s23.27-40.94,44.79-41.34v-17.09s-21.74,6.28-28.78,21.61c-7.03,15.33-12.99,24.92-16.01,36.81Z"/>
      <path class="cls-9" d="m55.63,127.95s-22.37-40.36-44.73-41.05v-18.29s25.87,8.72,32.9,24.04c7.03,15.33,10.04,23.36,11.83,35.29Z"/>
      <path class="cls-5" d="m107.11,0c-20.66,6.45-35.2,32.76-35.2,32.76l-24.03-.4C30.52,4.6,12.64,0,12.64,0L.04,69.65S-.05,171.54.04,174.61c.08,3.06,4.3,4.25,6.04,4.18,1.74-.07,3.69-1.53,3.69-1.53l21.87-23.26s21.73,22.01,22.91,22.98c1.18.97,3.2,2.99,5.39,2.92,2.19-.07,4.7-2.51,4.7-2.51l23.12-23.54s17.13,17.76,18.39,19.36c1.25,1.6,4.25,5.57,8.15,5.57s5.55-4.19,5.55-4.19v-105.96L107.11,0Zm1,158.4l-15.06-15.82s-2.52-2.62-4.82-2.83c-2.31-.21-5.66,3.14-6.71,4.19-1.05,1.05-21.66,22.12-21.66,22.12l-21-21.59s-3.88-4.82-7.13-4.93c-3.25-.1-9.96,8.49-9.96,8.49-.94,1.15-10.05,10.37-10.05,10.37v-88.5s34.53,14.14,43.91,58.05l7.88.27s14.52-48,44.6-58.32v88.5Z"/>
      <path class="cls-8" d="m41.95,222.26s7.34-6.96,17.98-6.7c10.64.26,18.12,6.7,18.12,6.7,0,0-16.11,18.69-18.05,18.69s-18.05-18.69-18.05-18.69Z"/>
    </g>
  </g>
</svg>